<?xml version="1.0" encoding="utf-8"?>
<!-- Generator: Adobe Illustrator 28.0.0, SVG Export Plug-In . SVG Version: 6.00 Build 0)  -->
<svg version="1.1" id="Calque_1" xmlns="http://www.w3.org/2000/svg" xmlns:xlink="http://www.w3.org/1999/xlink" x="0px" y="0px"
	 viewBox="0 0 100 125" style="enable-background:new 0 0 100 125;" xml:space="preserve">
<path d="M73.3,6.1c-11.9,0-18,6-23.3,15.9C44.7,12.1,38.6,6.1,26.7,6.1C13.1,6.1,2,17.1,2,30.8c0,8.7,3.1,16.8,9.6,25.5
	c5.8,7.7,14,15.3,22.6,23.2c4.8,4.4,9.8,9,14.8,14c0.3,0.3,0.6,0.4,1,0.4s0.7-0.1,1-0.4c5-5,10-9.6,14.8-14
	c8.6-8,16.8-15.5,22.6-23.2c6.6-8.7,9.6-16.8,9.6-25.5C98,17.1,86.9,6.1,73.3,6.1z M63.9,77.5C59.4,81.7,54.7,86,50,90.7
	c-4.7-4.7-9.4-9-13.9-13.2C18.6,61.3,4.7,48.5,4.7,30.8c0-12.1,9.9-22,22-22c10.1,0,15.9,4.4,22.1,16.7c0.2,0.5,0.7,0.8,1.2,0.8
	s1-0.3,1.2-0.8c6.2-12.4,12-16.7,22.1-16.7c12.1,0,22,9.8,22,22C95.3,48.5,81.4,61.3,63.9,77.5z"/>
</svg>
