<?xml version="1.0" encoding="utf-8"?>
<!-- Generator: Adobe Illustrator 28.0.0, SVG Export Plug-In . SVG Version: 6.00 Build 0)  -->
<svg version="1.1" id="Calque_1" xmlns="http://www.w3.org/2000/svg" xmlns:xlink="http://www.w3.org/1999/xlink" x="0px" y="0px"
	 viewBox="0 0 512 512" style="enable-background:new 0 0 512 512;" xml:space="preserve">
<style type="text/css">
	.st0{fill:url(#SVGID_1_);}
</style>
<linearGradient id="SVGID_1_" gradientUnits="userSpaceOnUse" x1="306.2209" y1="59.0569" x2="178.2903" y2="389.0966">
	<stop  offset="0" style="stop-color:#9356DC"/>
	<stop  offset="1" style="stop-color:#FF79DA"/>
</linearGradient>
<path class="st0" d="M47.6,300.4l180.7,168.7c7.5,7,17.4,10.9,27.7,10.9c10.3,0,20.2-3.9,27.7-10.9l180.7-168.7
	c30.4-28.3,47.6-68,47.6-109.5v-5.8c0-69.9-50.5-129.5-119.4-141C347,36.5,300.6,51.4,268,84l-12,12l-12-12
	c-32.6-32.6-79-47.5-124.6-39.9C50.5,55.6,0,115.2,0,185.1v5.8C0,232.4,17.2,272.1,47.6,300.4L47.6,300.4z"/>
</svg>
