<?xml version="1.0" encoding="utf-8"?>
<!-- Generator: Adobe Illustrator 28.0.0, SVG Export Plug-In . SVG Version: 6.00 Build 0)  -->
<svg version="1.1" id="Calque_1" xmlns="http://www.w3.org/2000/svg" xmlns:xlink="http://www.w3.org/1999/xlink" x="0px" y="0px"
	 viewBox="0 0 512 512" style="enable-background:new 0 0 512 512;" xml:space="preserve">
<path d="M392.8,45.4C353.4,37.9,313.1,47,281,69.6c-4,2.8-7.8,5.8-11.5,9c-4.8,4.1-9.3,8.5-13.5,13.3c-7.6-8.5-16-15.9-25-22.3
	C198.9,47,158.6,37.9,119.2,45.5C50,58.7,0,119.1,0,189.5v3.3c0,41.9,17.4,81.9,48.1,110.4l175.2,162.7l2.5,2.3v0
	c8.2,7.7,19,11.9,30.2,11.9s22-4.3,30.2-11.9l2.5-2.3l175.2-162.7c30.7-28.5,48.1-68.5,48.1-110.4v-3.3
	C512,119.1,462,58.6,392.8,45.4z M480,192.8c0,33-13.7,64.5-37.9,86.9l0,0l0,0c0,0,0,0,0,0L256,452.5L69.9,279.7l0,0
	c-24.2-22.4-37.9-54-37.9-86.9v-3.3c0-20.6,5.5-40.2,15.2-57.1c9.7-16.9,23.7-31.2,40.6-41.3c11.3-6.7,23.9-11.6,37.4-14.2l0,0
	c7.2-1.4,14.4-2,21.5-2c16.1,0,32,3.4,46.6,9.9c14.4,6.4,27.5,15.9,38.4,28l0.2,0.2l18,20.2l3.3,2.5c0.9,0.3,1.8,0.5,2.8,0.5
	c2,0,3.9-0.8,5.4-2.1c0.1-0.1,0.2-0.2,0.2-0.2c0.1-0.1,0.2-0.2,0.3-0.3l18.2-20.5l0.3-0.3c10.9-12.1,24-21.5,38.4-27.9
	c14.6-6.5,30.5-9.9,46.6-9.9c7.1,0,14.3,0.7,21.4,2l-0.1,0l0.1,0c0,0,0,0,0,0l0,0c20.2,3.9,38.4,13,53.2,25.7
	c14.8,12.7,26.2,29.1,32.9,47.6c4.5,12.3,6.9,25.6,6.9,39.3V192.8z"/>
</svg>
